<svg width="100" height="100" viewBox="0 0 100 100" fill="none" xmlns="http://www.w3.org/2000/svg">
<path d="M26.9384 37.28C31.8984 37.28 34.0184 39.68 34.0184 41.48C34.0184 42.92 32.4584 43.64 31.4984 43.64C30.5384 43.64 30.1784 43.08 29.9384 42.48C29.0984 40.24 27.9784 38.92 26.3384 38.92C22.7384 38.92 22.0184 45.16 21.9784 49.56H22.0584C23.4984 48.08 25.6184 46.88 27.9384 46.88C31.8584 46.88 35.0984 49.16 35.0984 54.36C35.0984 59.24 32.3384 63.28 25.8184 63.28C19.0184 63.28 16.4584 58.8 16.4584 50.8C16.4584 47.44 17.0984 44.12 18.4984 41.72C20.0584 38.96 22.6984 37.28 26.9384 37.28ZM25.5784 49.64C23.0984 49.64 21.9784 51.8 21.9784 54.04C21.9784 58.12 23.1384 61.64 25.9384 61.64C28.6584 61.64 29.4984 58.88 29.4984 55.4C29.4984 51.16 27.7784 49.64 25.5784 49.64Z" fill="white"/>
<path d="M46.14 38.92C42.94 38.92 42.7 45.56 42.7 50.28C42.7 54.96 43.1 61.64 46.26 61.64C49.34 61.64 49.7 54.96 49.7 50.28C49.7 45.56 49.38 38.92 46.14 38.92ZM46.26 37.28C53.06 37.28 55.46 43.24 55.46 50.28C55.46 57.32 53.18 63.28 46.22 63.28C39.3 63.28 36.98 57.24 36.98 50.28C36.98 43.2 39.26 37.28 46.26 37.28Z" fill="white"/>
<path d="M60.7017 59.16V40.36C60.7017 38.4 60.4617 38.2 57.6217 38.08V36.72H69.4617V38.08C66.6217 38.2 66.3817 38.36 66.3817 40.36V59.16C66.3817 61.16 66.6217 61.28 69.4617 61.44V62.84H57.6217V61.44C60.4617 61.28 60.7017 61.12 60.7017 59.16ZM75.6217 39.4C76.1817 38.72 76.1017 38.28 75.4617 38.24L73.4217 38.04V36.72H83.3417V38.04C80.8217 38.2 80.1017 38.52 78.6217 39.64C76.0217 41.68 73.9417 44.08 71.1017 47.08C73.3017 50.64 76.8617 55.68 80.1017 59.32C81.2217 60.56 82.4617 61.44 83.5417 61.72L83.4617 63.08L80.9017 63C76.7017 62.88 74.7417 62.2 72.3017 58.84C70.1817 56.08 68.5417 53.4 66.5417 49.8V49.52C69.5417 46.48 73.6217 41.96 75.6217 39.4Z" fill="white"/>
</svg>
