<svg width="80" height="74" viewBox="0 0 80 74" fill="none" xmlns="http://www.w3.org/2000/svg">
<path fill-rule="evenodd" clip-rule="evenodd" d="M60.0834 51.2173L72.3567 62.5702C73.66 63.7757 73.66 65.7244 72.3567 66.93C71.7067 67.5312 70.8534 67.8334 70 67.8334C69.1467 67.8334 68.2934 67.5312 67.6434 66.93L55.37 55.5772C50.2334 59.3789 43.74 61.6667 36.6667 61.6667C20.1234 61.6667 6.66669 49.2162 6.66669 33.9167C6.66669 18.6172 20.1234 6.16675 36.6667 6.16675C53.21 6.16675 66.6667 18.6172 66.6667 33.9167C66.6667 40.4596 64.1934 46.469 60.0834 51.2173ZM36.6667 55.5001C23.8034 55.5001 13.3334 45.8184 13.3334 33.9167C13.3334 22.0151 23.8034 12.3334 36.6667 12.3334C49.53 12.3334 60 22.0151 60 33.9167C60 45.8184 49.53 55.5001 36.6667 55.5001ZM44.31 25.5702L33.3334 35.7236L29.0234 31.7368C27.72 30.5312 25.6134 30.5312 24.31 31.7368C23.0067 32.9424 23.0067 34.8911 24.31 36.0967L30.9767 42.2633C31.6267 42.8646 32.48 43.1667 33.3334 43.1667C34.1867 43.1667 35.04 42.8646 35.69 42.2633L49.0234 29.93C50.3267 28.7244 50.3267 26.7757 49.0234 25.5702C47.72 24.3646 45.6134 24.3646 44.31 25.5702Z" fill="#093582"/>
</svg>
