<svg width="90" height="83" viewBox="0 0 90 83" fill="none" xmlns="http://www.w3.org/2000/svg">
<path fill-rule="evenodd" clip-rule="evenodd" d="M64.2857 18.9257C64.2857 28.7103 55.6341 36.6686 45 36.6686C34.3646 36.6686 25.7143 28.7103 25.7143 18.9257C25.7143 9.14231 34.3646 1.18286 45 1.18286C55.6341 1.18286 64.2857 9.14231 64.2857 18.9257ZM45 8.28C51.381 8.28 56.5714 13.0552 56.5714 18.9257C56.5714 24.7962 51.381 29.5714 45 29.5714C38.619 29.5714 33.4286 24.7962 33.4286 18.9257C33.4286 13.0552 38.619 8.28 45 8.28ZM65.1317 37.0246L64.7486 36.8933C63.4796 36.458 62.055 36.6638 60.9956 37.441C56.4017 40.805 50.8706 42.5829 45 42.5829C39.1281 42.5829 33.5983 40.805 29.0031 37.441C27.9437 36.6638 26.5204 36.458 25.2501 36.8933L24.867 37.0258C15.3771 40.2929 9 48.7515 9 58.0747V68.6057C9 70.5657 10.7267 72.1543 12.8571 72.1543C14.9876 72.1543 16.7143 70.5657 16.7143 68.6057V58.0747C16.7143 54.6587 17.9717 51.4164 20.1317 48.794C20.8826 51.6495 22.203 54.3677 24.0879 56.9286C23.2521 58.3373 22.9256 60.0134 23.292 61.7097C24.1226 65.554 28.1841 68.0498 32.3614 67.2857C36.54 66.5215 39.2529 62.7849 38.4223 58.9418C37.6779 55.5079 34.3569 53.1564 30.6784 53.238C28.6933 50.6358 27.5349 47.8939 27.1941 44.9297C32.517 48.0347 38.5971 49.68 45 49.68C51.4016 49.68 57.483 48.0347 62.8046 44.9297C62.5719 46.9701 61.9521 48.9064 60.9429 50.7623C58.5193 49.6031 55.5776 49.9521 53.559 51.7263L46.4837 57.9517C45.531 58.7904 45.1093 60.0182 45.3664 61.207L45.72 62.8476C46.1353 64.7709 48.1641 66.0212 50.2547 65.6367C52.2437 65.2748 53.5693 63.5644 53.334 61.744L58.1451 57.5105L61.5536 59.6054L59.1441 65.3138C57.2271 65.8118 56.016 67.5908 56.412 69.4195C56.7759 71.1087 58.3881 72.2785 60.1907 72.2785C60.4401 72.2785 60.6921 72.2548 60.9454 72.2087L62.7287 71.8834C64.0234 71.648 65.0957 70.8177 65.574 69.6869L69.1187 61.2897C70.1087 58.9382 69.3797 56.3537 67.3701 54.7284C68.4951 52.8252 69.3283 50.8463 69.8683 48.7952C72.027 51.4176 73.2857 54.6587 73.2857 58.0747V74.52H23.1429C21.0124 74.52 19.2857 76.1086 19.2857 78.0686C19.2857 80.0286 21.0124 81.6172 23.1429 81.6172H74.5714C78.1161 81.6172 81 78.964 81 75.7029V58.0747C81 48.7515 74.6229 40.2929 65.1317 37.0246Z" fill="#093582"/>
</svg>
