<svg width="90" height="83" viewBox="0 0 90 83" fill="none" xmlns="http://www.w3.org/2000/svg">
<path fill-rule="evenodd" clip-rule="evenodd" d="M7.5 18.9514C7.5 12.33 14.1647 7.41145 21.1905 8.84783L44.1865 13.5492C44.7223 13.6588 45.2777 13.6588 45.8135 13.5492L68.8095 8.84783C75.8353 7.41145 82.5 12.33 82.5 18.9514V24.1497C82.5 26.0551 80.8211 27.5997 78.75 27.5997C76.6789 27.5997 75 26.0551 75 24.1497V18.9514C75 16.7442 72.7784 15.1047 70.4365 15.5835L47.4405 20.2849C45.8331 20.6136 44.1669 20.6136 42.5595 20.2849L19.5635 15.5835C17.2216 15.1047 15 16.7442 15 18.9514V62.9697C15 64.7178 16.3903 66.1088 18.1465 66.2763C19.3052 66.3868 20.4179 66.4857 21.4956 66.5816C29.1024 67.2579 34.9622 67.779 42.9358 71.1162C44.2266 71.6565 45.7187 71.6481 46.9996 71.0942C55.303 67.504 61.291 67.0304 69.1828 66.4064C70.0301 66.3394 70.8993 66.2707 71.7957 66.1961C73.5813 66.0477 75 64.6451 75 62.8806V58.6497C75 56.7443 76.6789 55.1997 78.75 55.1997C80.8211 55.1997 82.5 56.7443 82.5 58.6497V62.8806C82.5 68.0997 78.245 72.5881 72.4706 73.0681C71.5752 73.1426 70.7201 73.211 69.8991 73.2767C61.9836 73.9102 57.2419 74.2897 50.1897 77.3389C46.915 78.7548 43.1211 78.7743 39.8301 77.3968C33.0465 74.5576 28.4 74.1391 20.8097 73.4555C19.7288 73.3581 18.5882 73.2554 17.3732 73.1395C11.6617 72.5949 7.5 68.1287 7.5 62.9697V18.9514Z" fill="#093582"/>
<path fill-rule="evenodd" clip-rule="evenodd" d="M22.6119 26.7632C23.1142 24.9147 25.1502 23.7908 27.1595 24.2529L42.1595 27.7029C44.1687 28.1651 45.3903 30.0382 44.888 31.8867C44.3857 33.7352 42.3497 34.8591 40.3405 34.3969L25.3405 30.9469C23.3312 30.4848 22.1096 28.6117 22.6119 26.7632Z" fill="#093582"/>
<path fill-rule="evenodd" clip-rule="evenodd" d="M22.6119 40.5632C23.1142 38.7147 25.1502 37.5908 27.1595 38.0529L42.1595 41.5029C44.1687 41.9651 45.3903 43.8382 44.888 45.6867C44.3857 47.5352 42.3497 48.6591 40.3405 48.1969L25.3405 44.7469C23.3312 44.2848 22.1096 42.4117 22.6119 40.5632Z" fill="#093582"/>
<path fill-rule="evenodd" clip-rule="evenodd" d="M22.6119 54.3632C23.1142 52.5147 25.1502 51.3908 27.1595 51.8529L42.1595 55.3029C44.1687 55.7651 45.3903 57.6382 44.888 59.4867C44.3857 61.3352 42.3497 62.4591 40.3405 61.9969L25.3405 58.5469C23.3312 58.0848 22.1096 56.2117 22.6119 54.3632Z" fill="#093582"/>
<path fill-rule="evenodd" clip-rule="evenodd" d="M52.5 33.5449C52.5 28.2469 58.7211 24.9255 63.721 27.554L78.6627 35.4091C83.7013 38.0579 83.7013 44.7419 78.6627 47.3908L63.721 55.2458C58.7211 57.8744 52.5 54.5529 52.5 49.255V33.5449ZM74.9416 41.3999L60 33.5449V49.255L74.9416 41.3999Z" fill="#093582"/>
</svg>
