<svg width="90" height="83" viewBox="0 0 90 83" fill="none" xmlns="http://www.w3.org/2000/svg">
<path fill-rule="evenodd" clip-rule="evenodd" d="M43.9521 19.8815C46.4811 13.7011 56.2834 8.28003 64.9286 8.28003C77.3344 8.28003 87.4286 17.5666 87.4286 28.98C87.4286 40.384 78.9583 48.1825 71.019 54.5972C61.2373 62.5034 47.5496 73.595 47.5496 73.595C46.8193 74.1865 45.909 74.481 45 74.481C44.0473 74.481 43.0959 74.1569 42.354 73.5134L36.6943 68.6057H20.5714C18.441 68.6057 16.7143 67.0172 16.7143 65.0572C16.7143 63.0972 18.441 61.5086 20.5714 61.5086H38.2256C39.2091 61.5086 40.1554 61.854 40.8716 62.475L45.0874 66.1324C49.545 62.5211 58.7803 55.0419 65.9289 49.2648C74.439 42.3877 79.7143 36.5953 79.7143 28.98C79.7143 21.4795 73.0813 15.3772 64.9286 15.3772C59.0631 15.3772 52.4623 19.2297 51.1714 22.3832C50.8294 23.2172 50.8551 23.9269 52.038 24.8814C53.64 26.1743 53.7981 28.4158 52.3929 29.8896C50.9876 31.3635 48.5499 31.509 46.9504 30.2161C43.497 27.4281 42.4041 23.6619 43.9521 19.8815ZM27 48.4972C29.1304 48.4972 30.8571 50.0858 30.8571 52.0457C30.8571 54.0057 29.1304 55.5943 27 55.5943H6.42857C4.29814 55.5943 2.57143 54.0057 2.57143 52.0457C2.57143 50.0858 4.29814 48.4972 6.42857 48.4972H27ZM9.027 42.629C9.60428 42.629 10.1906 42.5084 10.7409 42.2576C12.6489 41.3847 13.4267 39.2555 12.4791 37.5001C10.962 34.6909 10.2857 32.0626 10.2857 28.98C10.2857 21.4795 16.9187 15.3772 25.0714 15.3772C27.7534 15.3772 30.3776 16.0431 32.661 17.3029C34.4893 18.3107 36.8589 17.7665 37.953 16.0857C39.0484 14.4049 38.4557 12.2249 36.6287 11.2171C33.147 9.29492 29.151 8.28003 25.0714 8.28003C12.6656 8.28003 2.57143 17.5666 2.57143 28.98C2.57143 33.1579 3.52414 36.8685 5.571 40.6584C6.24343 41.9063 7.61014 42.629 9.027 42.629ZM37.2857 49.68C35.1553 49.68 33.4286 48.0915 33.4286 46.1315C33.4286 44.1715 35.1553 42.5829 37.2857 42.5829H41.1429V39.0343C41.1429 37.0743 42.8696 35.4857 45 35.4857C47.1304 35.4857 48.8571 37.0743 48.8571 39.0343V42.5829H52.7143C54.8447 42.5829 56.5714 44.1715 56.5714 46.1315C56.5714 48.0915 54.8447 49.68 52.7143 49.68H48.8571V53.2286C48.8571 55.1886 47.1304 56.7772 45 56.7772C42.8696 56.7772 41.1429 55.1886 41.1429 53.2286V49.68H37.2857Z" fill="#093582"/>
</svg>
