<svg width="90" height="83" viewBox="0 0 90 83" fill="none" xmlns="http://www.w3.org/2000/svg">
<path fill-rule="evenodd" clip-rule="evenodd" d="M14.5685 16.2927C15.6152 12.7618 20.4175 11.5885 23.2305 14.1764L23.5983 14.5148C25.0628 15.8621 27.4371 15.8621 28.9016 14.5148C30.3661 13.1675 30.3661 10.983 28.9016 9.63573L28.5338 9.29734C21.6488 2.96321 9.89468 5.83496 7.33277 14.4772C5.97928 19.0429 7.75792 23.9085 11.8352 26.794L30 39.6491V64.979C30 71.0105 35.3147 75.9 41.8707 75.9C47.6736 75.9 52.6259 72.0404 53.5799 66.7744L56.8016 48.9904C57.2345 46.6012 59.4814 44.85 62.1142 44.85C65.0887 44.85 67.5 47.0684 67.5 49.805V55.789C63.1305 57.2098 60 61.0436 60 65.55C60 71.2662 65.0368 75.9 71.25 75.9C77.4632 75.9 82.5 71.2662 82.5 65.55C82.5 61.0436 79.3694 57.2098 75 55.789V49.805C75 43.2577 69.2308 37.95 62.1142 37.95C55.8151 37.95 50.4392 42.1397 49.4037 47.856L46.1819 65.64C45.8307 67.5789 44.0073 69 41.8707 69C39.4568 69 37.5 67.1997 37.5 64.979V39.649L55.6647 26.794C59.7419 23.9085 61.5206 19.0429 60.1671 14.4772C57.6052 5.83496 45.851 2.96321 38.9661 9.29734L38.5983 9.63573C37.1338 10.983 37.1338 13.1675 38.5983 14.5148C40.0628 15.8621 42.4371 15.8621 43.9016 14.5148L44.2694 14.1764C47.0823 11.5885 51.8847 12.7618 52.9314 16.2927C53.4844 18.1581 52.7577 20.146 51.0918 21.3249L33.7499 33.5976L16.408 21.3249C14.7422 20.146 14.0155 18.1581 14.5685 16.2927ZM75 65.55C75 67.4554 73.321 69 71.25 69C69.1789 69 67.5 67.4554 67.5 65.55C67.5 63.6447 69.1789 62.1 71.25 62.1C73.321 62.1 75 63.6447 75 65.55Z" fill="#093582"/>
</svg>
