<svg width="100" height="100" viewBox="0 0 100 100" fill="none" xmlns="http://www.w3.org/2000/svg">
<path d="M25.9511 63.28H12.2033V61.8564L14.9285 61.653C15.9046 61.5717 16.2707 61.1649 16.2707 60.0261V42.0482C16.2707 40.706 15.9453 40.3806 15.0505 40.2179L12.366 39.7298V38.5503L21.599 37.2894L21.9243 37.5741V60.0261C21.9243 61.287 22.3311 61.5717 23.2259 61.653L25.9511 61.8564V63.28Z" fill="white"/>
<path d="M39.7818 63.28H30.4268V61.8564C32.4605 61.653 33.3554 61.8157 33.5994 59.7007C33.7621 58.3584 33.8028 56.8942 33.8028 53.9657V40.4213C33.8028 38.4283 33.5587 38.2656 30.6709 38.1029V36.72H40.2699C42.3036 41.8855 45.8015 50.2644 47.5098 54.5351H47.6319C49.8283 48.8814 52.3907 42.2516 54.4651 36.72H63.7387V38.1029C60.8915 38.2249 60.6068 38.4283 60.6068 40.4213V59.538C60.6068 61.5717 60.8915 61.6937 63.7387 61.8564V63.28H51.9433V61.8564C54.7905 61.7344 55.0752 61.5717 55.0752 59.538V40.4213H54.9532C52.7161 46.441 48.12 59.0906 46.615 63.2393H44.5813C42.1409 56.5688 38.0328 45.6275 35.9585 40.4213H35.8771V53.9657C35.8771 56.8535 35.9178 58.3584 36.0805 59.7007C36.3245 61.9377 37.6261 61.653 39.7818 61.8564V63.28Z" fill="white"/>
<path d="M67.1344 53.9657V51.3219H75.8386V42.3736H79.0925V51.3219H87.7967V53.9657H79.0925V63.28H75.8386V53.9657H67.1344Z" fill="white"/>
</svg>
