<svg width="90" height="83" viewBox="0 0 90 83" fill="none" xmlns="http://www.w3.org/2000/svg">
<path d="M35.2388 44.9486L35.6953 44.3926L42.7718 54.8053L50.3833 39.0095L53.6708 44.9486H81C84.5447 44.9486 87.4286 42.2954 87.4286 39.0343V29.5714C87.4286 26.3103 84.5447 23.6572 81 23.6572H64.2857V8.28001C64.2857 5.01887 61.4018 2.36572 57.8571 2.36572H32.1428C28.5981 2.36572 25.7143 5.01887 25.7143 8.28001V23.6572H8.99998C5.45527 23.6572 2.57141 26.3103 2.57141 29.5714C2.57141 31.5314 4.29813 33.12 6.42855 33.12C8.1077 33.12 9.53741 32.1323 10.0658 30.7543H29.5714C31.7018 30.7543 33.4286 29.1657 33.4286 27.2057V9.46287H56.5714V27.2057C56.5714 29.1657 58.2981 30.7543 60.4286 30.7543H79.7143V37.8514H58.3997L49.9011 22.4991L41.6096 39.7073L36.3034 31.9017L31.4048 37.8514H8.99998C5.45527 37.8514 2.57141 40.5046 2.57141 43.7657V53.2286C2.57141 56.4897 5.45527 59.1429 8.99998 59.1429H25.7143V74.52C25.7143 77.7812 28.5981 80.4343 32.1428 80.4343H57.8571C61.4018 80.4343 64.2857 77.7812 64.2857 74.52V59.1429H83.5714C85.7018 59.1429 87.4286 57.5543 87.4286 55.5943C87.4286 53.6343 85.7018 52.0457 83.5714 52.0457H60.4286C58.2981 52.0457 56.5714 53.6343 56.5714 55.5943V73.3372H33.4286V55.5943C33.4286 53.6343 31.7018 52.0457 29.5714 52.0457H10.2857V44.9486H35.2388Z" fill="#093582"/>
</svg>
