<svg xmlns="http://www.w3.org/2000/svg" viewBox="0 0 121.7 340.2" class="flip">
<defs><style>
.flip {
 -moz-transform: scaleX(-1);
        -o-transform: scaleX(-1);
        -webkit-transform: scaleX(-1);
        transform: scaleX(-1);
        filter: FlipH;
        -ms-filter: "FlipH";
}
</style>
</defs>
	<g id="background-dotted-line">
		<rect x="120" y="333.5" class="st0" width="1.7" height="6.6"/>
		<path fill="#8699BD" d="M121.7,26.7H120V13.3h1.7V26.7z M121.7,46.7H120V33.3h1.7V46.7z M121.7,66.7H120V53.3h1.7V66.7z M121.7,86.7
		H120V73.4h1.7V86.7z M121.7,106.7H120V93.3h1.7V106.7z M121.7,126.7H120v-13.4h1.7V126.7z M121.7,146.7H120v-13.4h1.7V146.7z
		 M121.7,166.8H120v-13.4h1.7V166.8z M121.7,186.7H120v-13.3h1.7V186.7z M121.7,206.8H120v-13.4h1.7V206.8z M121.7,226.8H120v-13.4
		h1.7V226.8z M121.7,246.8H120v-13.4h1.7V246.8z M121.7,266.8H120v-13.4h1.7V266.8z M121.7,286.8H120v-13.4h1.7V286.8z M121.7,306.8
		H120v-13.4h1.7V306.8z M121.7,326.8H120v-13.3h1.7V326.8z"/>
		<rect x="120" y="0" class="st0" width="1.7" height="6.6"/>
	</g>
	<g id="background-dotted-line_1_">
		<path fill="#8699BD" d="M81.7,26.7H80V13.3h1.7V26.7z M81.7,46.7H80V33.3h1.7V46.7z M81.7,66.7H80V53.3h1.7V66.7z M81.7,86.7H80V73.4
		h1.7V86.7z M81.7,106.7H80V93.3h1.7V106.7z M81.7,126.7H80v-13.4h1.7V126.7z M81.7,146.7H80v-13.4h1.7V146.7z M81.7,166.8H80v-13.4
		h1.7V166.8z M81.7,186.7H80v-13.3h1.7V186.7z M81.7,206.8H80v-13.4h1.7V206.8z M81.7,226.8H80v-13.4h1.7V226.8z M81.7,246.8H80
		v-13.4h1.7V246.8z M81.7,266.8H80v-13.4h1.7V266.8z M81.7,286.8H80v-13.4h1.7V286.8z M81.7,306.8H80v-13.4h1.7V306.8z"/>
		<rect x="80" y="0" class="st0" width="1.7" height="6.6"/>
	</g>
	<g id="background-dotted-line_2_">
		<path fill="#8699BD" d="M41.7,26.7H40V13.3h1.7V26.7z M41.7,46.7H40V33.3h1.7V46.7z M41.7,66.7H40V53.3h1.7V66.7z M41.7,86.7H40V73.4
		h1.7V86.7z M41.7,106.7H40V93.3h1.7V106.7z M41.7,126.7H40v-13.4h1.7V126.7z M41.7,146.7H40v-13.4h1.7V146.7z M41.7,166.8H40v-13.4
		h1.7V166.8z M41.7,186.7H40v-13.3h1.7V186.7z M41.7,206.8H40v-13.4h1.7V206.8z M41.7,226.8H40v-13.4h1.7V226.8z M41.7,246.8H40
		v-13.4h1.7V246.8z M41.7,266.8H40v-13.4h1.7V266.8z"/>
		<rect x="40" y="0" class="st0" width="1.7" height="6.6"/>
	</g>
	<g id="background-dotted-line_3_">
		<path fill="#8699BD" d="M1.7,26.7H0l0-13.4h1.7V26.7z M1.7,46.7H0l0-13.4h1.7V46.7z M1.7,66.7H0l0-13.4h1.7V66.7z M1.7,86.7H0l0-13.4
		h1.7V86.7z M1.7,106.7H0l0-13.4h1.7V106.7z M1.7,126.7H0l0-13.4h1.7V126.7z M1.7,146.7H0l0-13.4h1.7V146.7z M1.7,166.8H0l0-13.4
		h1.7V166.8z M1.7,186.7H0l0-13.3h1.7V186.7z M1.7,206.8H0l0-13.4h1.7V206.8z M1.7,226.8H0l0-13.4h1.7V226.8z"/>
		<rect x="0" y="0" class="st0" width="1.7" height="6.6"/>
	</g>
</svg>
