<svg xmlns="http://www.w3.org/2000/svg" viewBox="0 0 281.684 340.158" width="282" height="340">
	<g id="background-dotted-line">
		<rect x="280" fill="#8699BD" width="1.684" height="6.644"/>
		<path fill="#8699BD" d="M281.684,326.871H280v-13.383h1.684V326.871z M281.684,306.845H280v-13.383h1.684V306.845z
		 M281.684,286.818H280v-13.381h1.684V286.818z M281.684,266.792H280V253.41h1.684V266.792z M281.684,246.859H280v-13.381h1.684
		V246.859z M281.684,226.835H280v-13.383h1.684V226.835z M281.684,206.808H280v-13.381h1.684V206.808z M281.684,186.783H280V173.4
		h1.684V186.783z M281.684,166.758H280v-13.289h1.684V166.758z M281.684,146.73H280v-13.382h1.684V146.73z M281.684,126.704H280
		v-13.381h1.684V126.704z M281.684,106.773H280V93.392h1.684V106.773z M281.684,86.747H280V73.365h1.684V86.747z M281.684,66.721
		H280V53.34h1.684V66.721z M281.684,46.696H280V33.314h1.684V46.696z M281.684,26.67H280V13.382h1.684V26.67z"/>
		<rect x="280" y="333.513" fill="#8699BD" width="1.684" height="6.645"/>
	</g>
	<g id="background-dotted-line_1_">
		<path fill="#8699BD" d="M241.684,326.871H240v-13.383h1.684V326.871z M241.684,306.845H240v-13.383h1.684V306.845z
		 M241.684,286.818H240v-13.381h1.684V286.818z M241.684,266.792H240V253.41h1.684V266.792z M241.684,246.859H240v-13.381h1.684
		V246.859z M241.684,226.835H240v-13.383h1.684V226.835z M241.684,206.808H240v-13.381h1.684V206.808z M241.684,186.783H240V173.4
		h1.684V186.783z M241.684,166.758H240v-13.289h1.684V166.758z M241.684,146.73H240v-13.382h1.684V146.73z M241.684,126.704H240
		v-13.381h1.684V126.704z M241.684,106.773H240V93.392h1.684V106.773z M241.684,86.747H240V73.365h1.684V86.747z M241.684,66.721
		H240V53.34h1.684V66.721z M241.684,46.696H240V33.314h1.684V46.696z"/>
		<rect x="240" y="333.513" fill="#8699BD" width="1.684" height="6.645"/>
	</g>
	<g id="background-dotted-line_2_">
		<path fill="#8699BD" d="M201.684,326.871H200v-13.383h1.684V326.871z M201.684,306.845H200v-13.383h1.684V306.845z
		 M201.684,286.818H200v-13.381h1.684V286.818z M201.684,266.792H200V253.41h1.684V266.792z M201.684,246.859H200v-13.381h1.684
		V246.859z M201.684,226.835H200v-13.383h1.684V226.835z M201.684,206.808H200v-13.381h1.684V206.808z M201.684,186.783H200V173.4
		h1.684V186.783z M201.684,166.758H200v-13.289h1.684V166.758z M201.684,146.73H200v-13.382h1.684V146.73z M201.684,126.704H200
		v-13.381h1.684V126.704z M201.684,106.773H200V93.392h1.684V106.773z M201.684,86.747H200V73.365h1.684V86.747z"/>
		<rect x="200" y="333.513" fill="#8699BD" width="1.684" height="6.645"/>
	</g>
	<g id="background-dotted-line_3_">
		<path fill="#8699BD" d="M161.684,326.871H160v-13.383h1.684V326.871z M161.684,306.845H160v-13.383h1.684V306.845z
		 M161.684,286.818H160v-13.381h1.684V286.818z M161.684,266.792H160V253.41h1.684V266.792z M161.684,246.859H160v-13.381h1.684
		V246.859z M161.684,226.835H160v-13.383h1.684V226.835z M161.684,206.808H160v-13.381h1.684V206.808z M161.684,186.783H160V173.4
		h1.684V186.783z M161.684,166.758H160v-13.289h1.684V166.758z M161.684,146.73H160v-13.382h1.684V146.73z M161.684,126.704H160
		v-13.381h1.684V126.704z"/>
		<rect x="160" y="333.513" fill="#8699BD" width="1.684" height="6.645"/>
	</g>
	<g id="background-dotted-line_4_">
		<path fill="#8699BD" d="M121.684,326.871H120v-13.383h1.684V326.871z M121.684,306.845H120v-13.383h1.684V306.845z
		 M121.684,286.818H120v-13.381h1.684V286.818z M121.684,266.792H120V253.41h1.684V266.792z M121.684,246.859H120v-13.381h1.684
		V246.859z M121.684,226.835H120v-13.383h1.684V226.835z M121.684,206.808H120v-13.381h1.684V206.808z M121.684,186.783H120V173.4
		h1.684V186.783z M121.684,166.758H120v-13.289h1.684V166.758z"/>
		<rect x="120" y="333.513" fill="#8699BD" width="1.684" height="6.645"/>
	</g>
	<g id="background-dotted-line_5_">
		<path fill="#8699BD" d="M81.684,326.871H80v-13.383h1.684V326.871z M81.684,306.845H80v-13.383h1.684V306.845z M81.684,286.818H80
		v-13.381h1.684V286.818z M81.684,266.792H80V253.41h1.684V266.792z M81.684,246.859H80v-13.381h1.684V246.859z M81.684,226.835H80
		v-13.383h1.684V226.835z M81.684,206.808H80v-13.381h1.684V206.808z"/>
		<rect x="80" y="333.513" fill="#8699BD" width="1.684" height="6.645"/>
	</g>
	<g id="background-dotted-line_6_">
		<path fill="#8699BD" d="M41.684,326.871H40v-13.383h1.684V326.871z M41.684,306.845H40v-13.383h1.684V306.845z M41.684,286.818H40
		v-13.381h1.684V286.818z M41.684,266.792H40V253.41h1.684V266.792z"/>
		<rect x="40" y="333.513" fill="#8699BD" width="1.684" height="6.645"/>
	</g>
	<g id="background-dotted-line_7_">
		<path fill="#8699BD" d="M1.684,326.871H0v-13.383h1.684V326.871z M1.684,306.845H0v-13.383h1.684V306.845z M1.684,286.818H0
		v-13.381h1.684V286.818z"/>
		<rect y="333.513" fill="#8699BD" width="1.684" height="6.645"/>
	</g>
</svg>
