<?xml version="1.0" encoding="utf-8"?>
<!-- Generator: Adobe Illustrator 23.0.1, SVG Export Plug-In . SVG Version: 6.00 Build 0)  -->
<svg version="1.1" id="Layer_1" xmlns="http://www.w3.org/2000/svg" xmlns:xlink="http://www.w3.org/1999/xlink" x="0px" y="0px"
	 viewBox="0 0 90 82.8" style="enable-background:new 0 0 90 82.8;" xml:space="preserve">
<style type="text/css">
	.st0{fill:#FFFFFF;}
</style>
<title>BH-icons-svg</title>
<g id="Nurseline">
	<path class="st0" d="M51.7,27.8h-5.6v-5.6c0-0.4-0.3-0.6-0.6-0.6h-4.9c-0.4,0-0.6,0.3-0.6,0.6v5.6h-5.6c-0.4,0-0.6,0.3-0.6,0.6
		c0,0,0,0,0,0v4.9c0,0.4,0.3,0.6,0.6,0.6c0,0,0,0,0,0H40v5.6c0,0.4,0.3,0.6,0.6,0.6h4.9c0.4,0,0.6-0.3,0.6-0.6v-5.6h5.6
		c0.4,0,0.6-0.3,0.6-0.7v-4.9C52.4,28,52.1,27.7,51.7,27.8C51.7,27.7,51.7,27.7,51.7,27.8z"/>
	<path class="st0" d="M21.4,51.4c0.6-0.5,0.7-1.5,0.2-2.1c0,0,0,0,0,0c-10.1-11.7-8.7-29.4,3-39.5s29.4-8.7,39.5,3
		c9,10.5,9,26,0,36.5c-0.5,0.6-0.5,1.6,0.1,2.1c0,0,0,0,0,0c0.3,0.2,0.6,0.4,1,0.4c0.4,0,0.9-0.2,1.1-0.5c11.2-13,9.7-32.6-3.3-43.7
		s-32.6-9.7-43.7,3.3c-10,11.6-10,28.8,0,40.4C19.9,51.9,20.8,51.9,21.4,51.4z"/>
	<path class="st0" d="M59.8,48.3c9.6-9.4,9.7-24.7,0.4-34.3s-24.7-9.7-34.3-0.4S16.2,38.4,25.5,48c0.2,0.2,0.3,0.3,0.5,0.5L14.7,75
		c-0.3,0.8,0.1,1.6,0.9,1.9C15.8,77,16,77,16.2,77l8.3-0.7l5.3,5.7c0.3,0.3,0.7,0.5,1.1,0.5c0.1,0,0.2,0,0.3,0
		c0.5-0.1,0.9-0.5,1.1-1l6.1-19.7c1.5,0.2,2.9,0.3,4.4,0.3c1.6,0,3.1-0.1,4.7-0.4l6.1,20c0.2,0.5,0.6,0.9,1.1,1c0.1,0,0.2,0,0.3,0
		c0.4,0,0.8-0.2,1.1-0.5l5.2-5.7l8.3,0.7c0.5,0,1-0.2,1.3-0.6c0.3-0.4,0.4-1,0.2-1.5L59.8,48.3z M60.9,73.5c-0.5,0-0.9,0.1-1.2,0.5
		l-4,4.3l-6.6-21.6c-1.4-3.9,0.2-4.5,0.7-4.7c0.8-0.3,1.2-1.1,0.9-1.9c-0.3-0.8-1.1-1.2-1.9-0.9c0,0-0.1,0-0.1,0
		c-1.5,0.5-4.6,2.5-2.5,8.5l0.3,1.2c-2.4,0.3-4.9,0.3-7.3,0l0.2-0.7c0.7-1.8,0.8-3.8,0.2-5.7c-0.6-1.3-1.7-2.3-3-2.8
		c-0.8-0.3-1.6,0.1-1.9,0.9c-0.3,0.8,0.1,1.6,0.8,1.9c0.6,0.2,1,0.6,1.3,1.2c0.3,1.1,0.2,2.3-0.2,3.4c0,0,0,0.1,0,0.1l-6.4,20.9
		l-4-4.3c-0.3-0.3-0.7-0.5-1.2-0.5l-6.5,0.6l10.7-25.2c0.3-0.7,0-1.4-0.6-1.8c0,0-0.1-0.1-0.1-0.1c-8.7-7.9-9.2-21.4-1.3-30
		s21.4-9.2,30-1.3s9.2,21.4,1.3,30c-0.5,0.5-0.9,1-1.4,1.4c-0.6,0.5-0.6,1.3-0.2,1.9c0,0.2,0,0.4,0.1,0.5l10.4,24.8L60.9,73.5z"/>
</g>
</svg>
