<?xml version="1.0" encoding="utf-8"?>
<!-- Generator: Adobe Illustrator 23.0.1, SVG Export Plug-In . SVG Version: 6.00 Build 0)  -->
<svg version="1.1" id="Layer_1" xmlns="http://www.w3.org/2000/svg" xmlns:xlink="http://www.w3.org/1999/xlink" x="0px" y="0px"
	 viewBox="0 0 75 71" style="enable-background:new 0 0 75 71;" xml:space="preserve">
<style type="text/css">
	.st0{fill:none;stroke:#808FAD;stroke-width:3.001;stroke-linecap:round;stroke-linejoin:round;}
	.st1{fill:none;stroke:#FFFFFD;stroke-width:3;stroke-linecap:round;stroke-linejoin:round;}
</style>
<title>icon-profile</title>
<g>
	<path class="st0" d="M1.5,69.5C3,63.7,5.5,52.2,7.3,49c2.2-3.8,6.2-6.2,10.6-6.2h13.3 M73.5,69.5C72,63.7,67.6,52.2,65.8,49
		c-2.2-3.8-6.2-6.2-10.6-6.2H41 M48.8,8.4c1.6,2.5,2.6,5.4,2.6,8.6c0,8.6-6.9,15.5-15.5,15.5S20.4,25.6,20.4,17S27.3,1.5,35.9,1.5
		c2.4,0,4.6,0.5,6.6,1.5"/>
	<path class="st1" d="M48.4,56.9c-0.1,0-0.3-0.1-0.4-0.2c-0.4-0.5-0.3-1.1,0-1.6c0.9-1.4,4.1-3.1,6.5-1c3,2.6,1.5,6.1-1.8,8.8
		c-3.7,3-5.3,4.7-5.3,4.7s-1.6-1.7-5.3-4.7c-3.3-2.7-4.8-6.1-1.8-8.8c2-1.8,4.9-0.9,6,0.4"/>
</g>
</svg>
