<svg width="64px" height="79px" viewBox="0 0 64 79" version="1.1" xmlns="http://www.w3.org/2000/svg" xmlns:xlink="http://www.w3.org/1999/xlink"><defs><polygon id="path-1" points="0 0 14 0 14 14 0 14"></polygon></defs><g id="Artboards" stroke="none" stroke-width="1" fill="none" fill-rule="evenodd"><g id="Institutes-Premier-Institute" transform="translate(-688.000000, -1371.000000)"><g id="Group-Copy" transform="translate(688.000000, 1371.000000)"><g id="BH_Icon_Stethoscope" fill="#FFFFFF" fill-rule="nonzero"><path d="M56.76,30.89 C54.9733614,30.8820279 53.2568767,31.5848141 51.9888391,32.8434727 C50.7208014,34.1021314 50.0052917,35.8133514 50,37.6 C50.0042747,38.0127031 50.0444259,38.424253 50.12,38.83 C42.39,44.33 44.86,54.23 45.94,58.52 C47.18,63.47 46.59,68.29 44.37,71.42 C42.5436135,73.8943867 39.692937,75.4061648 36.62,75.53 C32.98,75.85 30.16,75.13 28.27,73.38 C26.38,71.63 25.21,68.45 25.27,64.68 L25.27,51.87 C25.27,51.0415729 24.5984271,50.37 23.77,50.37 C21.057778,50.3588019 18.5683848,48.8667002 17.28,46.48 C12.6301132,37.9216349 8.43755446,29.1226023 4.72,20.12 C3.22,16.34 3.14,12.77 4.48,10.06 C5.18108706,8.6285543 6.3385543,7.47108706 7.77,6.77 C8.72846459,8.78747474 10.9976808,9.82488374 13.1505221,9.22979297 C15.3033634,8.6347022 16.7176079,6.57910689 16.5038271,4.35578586 C16.2900462,2.13246482 14.5100276,0.384010203 12.283238,0.210037793 C10.0564483,0.0360653829 8.02648215,1.48685731 7.47,3.65 C4.98987951,4.5337816 2.95452846,6.35375158 1.8,8.72 C0.07,12.2 0.11,16.64 1.93,21.23 C5.70150485,30.3457845 9.95415237,39.2549809 14.67,47.92 C16.2300819,50.7982173 19.0521566,52.7758918 22.29,53.26 L22.29,64.65 C22.29,69.28 23.65,73.16 26.29,75.58 C28.7090516,77.666885 31.8392518,78.7413244 35.03,78.58 C35.65,78.58 36.29,78.55 36.95,78.49 C40.89283,78.2887451 44.5358221,76.3240266 46.87,73.14 C49.63,69.25 50.38,63.65 48.87,57.78 C47.36,51.91 46.61,45.48 51.39,41.62 C53.2890979,44.1384026 56.6858686,44.9941195 59.5514559,43.6760399 C62.4170433,42.3579603 63.9777503,39.2219602 63.3013827,36.1411403 C62.6250152,33.0603203 59.8941896,30.8664894 56.74,30.87 L56.76,30.89 Z M11.91,3.2 C12.7936556,3.2 13.51,3.9163444 13.51,4.8 C13.51,5.6836556 12.7936556,6.4 11.91,6.4 C11.0263444,6.4 10.31,5.6836556 10.31,4.8 C10.31,3.9163444 11.0263444,3.2 11.91,3.2 Z M56.76,41.32 C55.254497,41.3240471 53.894984,40.4202686 53.3160465,39.0305251 C52.7371091,37.6407816 53.0529034,36.0391059 54.1160249,34.9731189 C55.1791463,33.9071319 56.7799662,33.5870273 58.171263,34.1622218 C59.5625598,34.7374163 60.4699946,36.0944916 60.47,37.6 C60.4645379,39.6483348 58.8083127,41.3090242 56.76,41.32 Z" id="Shape"></path><path d="M28.09,48 C28.670865,48.2387678 29.2920013,48.3643527 29.92,48.37 C31.41,48.37 33.09,47.61 34.58,45.06 C38.8258477,37.4453993 42.5025483,29.5271231 45.58,21.37 C47.42,16.73 47.44,12.24 45.64,8.74 C44.4195493,6.29474089 42.2515015,4.45551366 39.64,3.65 C39.0580231,1.50148817 37.0155529,0.0825064 34.7990076,0.286778268 C32.5824622,0.491050135 30.8337313,2.25942053 30.6542258,4.47810888 C30.4747202,6.69679723 31.9164231,8.72329334 34.0713003,9.28124017 C36.2261774,9.83918699 38.4701978,8.76700866 39.39,6.74 C40.9577039,7.38005 42.2402554,8.56667656 43,10.08 C44.4,12.8 44.34,16.41 42.82,20.24 C39.7913647,28.2525627 36.1748534,36.0304017 32,43.51 C30.79,45.59 29.91,45.51 29.19,45.18 C28.6862555,44.9835039 28.115947,45.0706785 27.6939041,45.408686 C27.2718613,45.7466935 27.0622025,46.2841825 27.1439041,46.818686 C27.2256058,47.3531896 27.5862555,47.8035039 28.09,48 Z M35.18,6.4 C34.2963444,6.4 33.58,5.6836556 33.58,4.8 C33.58,3.9163444 34.2963444,3.2 35.18,3.2 C36.0636556,3.2 36.78,3.9163444 36.78,4.8 C36.78,5.6836556 36.0636556,6.4 35.18,6.4 Z" id="Shape"></path></g><g id="Group-3-Copy" transform="translate(18.000000, 16.000000)"><mask id="mask-2" fill="white"><use xlink:href="#path-1"></use></mask><g id="Clip-2"></g><path d="M5.81402142,12.0753124 L8.18597858,12.0753124 L8.18597858,9.14624249 C8.18597858,8.61678299 8.61538462,8.1850349 9.14703019,8.1850349 L12.0756248,8.1850349 L12.0756248,5.81269274 L9.14703019,5.81269274 C8.61538462,5.81269274 8.18597858,5.38321701 8.18597858,4.84921279 L8.18597858,1.92241519 L5.81402142,1.92241519 L5.81402142,4.84921279 C5.81402142,5.38321701 5.38461538,5.81269274 4.85296981,5.81269274 L1.9243752,5.81269274 L1.9243752,8.1850349 L4.85296981,8.1850349 C5.38461538,8.1850349 5.81402142,8.61678299 5.81402142,9.14624249 L5.81402142,12.0753124 Z M9.14703019,14 L4.85296981,14 C4.32132425,14 3.88964622,13.5682519 3.88964622,13.0387924 L3.88964622,10.1097224 L0.963323596,10.1097224 C0.431678027,10.1097224 0,9.67797435 0,9.14624249 L0,4.84921279 C0,4.31748093 0.431678027,3.88800519 0.963323596,3.88800519 L3.88964622,3.88800519 L3.88964622,0.958935238 C3.88964622,0.429475734 4.32132425,0 4.85296981,0 L9.14703019,0 C9.68094774,0 10.1103538,0.429475734 10.1103538,0.958935238 L10.1103538,3.88800519 L13.0389484,3.88800519 C13.570594,3.88800519 14,4.31748093 14,4.84921279 L14,9.14624249 C14,9.67797435 13.570594,10.1097224 13.0389484,10.1097224 L10.1103538,10.1097224 L10.1103538,13.0387924 C10.1103538,13.5682519 9.68094774,14 9.14703019,14 Z" id="Fill-1" fill="#FFFFFF" mask="url(#mask-2)"></path></g></g></g></g></svg>