<svg xmlns="http://www.w3.org/2000/svg" viewBox="0 0 90 82.8"><defs><style>.cls-1{opacity:0.37;}.cls-2{fill:#231f20;}</style></defs><title>BH-icons-svg</title><g id="Nurseline"><path class="cls-2" d="M51.53,72H38.47a5.56,5.56,0,0,1-5.55-5.55v-13h-13a5.56,5.56,0,0,1-5.55-5.55V43a1.49,1.49,0,0,1,1.49-1.5l17.35-.14,3.2-4a1.5,1.5,0,0,1,1.3-.55,1.48,1.48,0,0,1,1.18.77l3.56,6.49,3.68-17.14a1.49,1.49,0,0,1,1.42-1.19,1.48,1.48,0,0,1,1.49,1.09L53.1,41.18c11.6,0,17,0,19.52,0V34.87a2.55,2.55,0,0,0-2.55-2.55H55.58a1.5,1.5,0,0,1-1.5-1.5V16.33a2.55,2.55,0,0,0-2.55-2.55H38.47a2.55,2.55,0,0,0-2.55,2.55V30.82a1.5,1.5,0,0,1-1.5,1.5H19.93a2.55,2.55,0,0,0-2.55,2.55,1.5,1.5,0,1,1-3,0,5.56,5.56,0,0,1,5.55-5.55h13v-13a5.56,5.56,0,0,1,5.55-5.55H51.53a5.56,5.56,0,0,1,5.55,5.55v13h13a5.56,5.56,0,0,1,5.55,5.55v7.82a1.51,1.51,0,0,1-.92,1.39,1.53,1.53,0,0,1-.76.1c-1.1,0-13.67,0-22,0h0a1.52,1.52,0,0,1-1.45-1.09L47.8,33.47,44.54,48.65a1.51,1.51,0,0,1-1.25,1.17,1.49,1.49,0,0,1-1.53-.77L37.35,41,35.1,43.76a1.5,1.5,0,0,1-1.15.55l-16.57.13v3.49a2.55,2.55,0,0,0,2.55,2.55H34.42a1.51,1.51,0,0,1,1.5,1.5V66.47A2.55,2.55,0,0,0,38.47,69H51.53a2.55,2.55,0,0,0,2.55-2.55V52a1.51,1.51,0,0,1,1.5-1.5H72.16a1.5,1.5,0,0,1,0,3H57.08v13A5.56,5.56,0,0,1,51.53,72Z"/></g></svg>