<svg xmlns="http://www.w3.org/2000/svg" viewBox="0 0 90 82.8"><defs><style>.cls-1{opacity:0.37;}.cls-2{fill:#231f20;}</style></defs><title>BH-icons-svg</title><g id="Nurseline"><path class="cls-2" d="M83.16,16.77a16.47,16.47,0,0,0-13.8-3.85c-6.24,1-11.12,4.92-13,8.11-1.59,2.67-1.45,5.68.35,7.66a4.75,4.75,0,0,0,2,1.29,1.5,1.5,0,0,0,.91-2.86,1.7,1.7,0,0,1-.72-.45c-1.09-1.19-.71-2.91,0-4.11,1.59-2.69,5.85-5.85,10.9-6.68A13.58,13.58,0,0,1,81.21,19c3.82,3.29,5.73,7.07,5.67,11.25-.09,6.23-4.47,13.16-12.34,19.53-10.88,8.81-16.93,14.51-19.2,16.73-2.27-2.22-8.32-7.92-19.2-16.73-7.83-6.34-12.21-13.25-12.31-19.45-.08-4.2,1.82-8,5.65-11.33a13.86,13.86,0,0,1,10.6-3.31C44,16.1,47.86,18,49.86,20.5a1.5,1.5,0,1,0,2.35-1.86c-2.52-3.19-7.06-5.45-11.85-5.89a17,17,0,0,0-12.85,4C23,20.7,20.74,25.3,20.83,30.42c.12,7.11,4.89,14.83,13.42,21.74,13.82,11.18,19.92,17.46,20,17.52a1.66,1.66,0,0,0,1.14.46,1.51,1.51,0,0,0,1.08-.46c.06-.06,6.13-6.32,20-17.52C85,45.22,89.78,37.47,89.88,30.34,90,25.22,87.7,20.66,83.16,16.77Z"/><path class="cls-2" d="M47.86,40.86a.64.64,0,0,0-.64.64v4.08a.64.64,0,0,0,.64.64h4.79V51a.64.64,0,0,0,.64.65h4.08A.65.65,0,0,0,58,51V46.22h4.78a.64.64,0,0,0,.65-.64V41.5a.64.64,0,0,0-.65-.64H58V36.07a.64.64,0,0,0-.64-.64H53.29a.64.64,0,0,0-.64.64v4.79Z"/><path class="cls-2" d="M29.26,57.05a1.5,1.5,0,0,0-1.5-1.5h-26a1.5,1.5,0,1,0,0,3h26A1.5,1.5,0,0,0,29.26,57.05Z"/><path class="cls-2" d="M40.89,67.14H16.18a1.5,1.5,0,1,0,0,3H40.89a1.5,1.5,0,0,0,0-3Z"/></g></svg>