<svg width="49px" height="51px" viewBox="0 0 49 51" version="1.1" xmlns="http://www.w3.org/2000/svg" xmlns:xlink="http://www.w3.org/1999/xlink"><title>BH_Icon_Access_to_the_Banner_Network</title><desc>Created with Sketch.</desc><g id="Artboards" stroke="none" stroke-width="1" fill="none" fill-rule="evenodd"><g id="Institutes-All-Landing" transform="translate(-739.000000, -1281.000000)" fill="#ffffff" fill-rule="nonzero"><g id="Group-9" transform="translate(0.000000, 932.000000)"><g id="Group-6" transform="translate(222.000000, 349.000000)"><g id="BH_Icon_Access_to_the_Banner_Network" transform="translate(517.000000, 0.000000)"><path d="M18.2437376,33 L15.7311876,33 C15.6234711,32.9999869 15.5202553,33.0432025 15.4446809,33.1199581 C15.3691066,33.1967136 15.3274965,33.3005876 15.3291796,33.4082915 L15.3291796,36.3417085 L12.4020587,36.3417085 C12.1800359,36.3417085 12.0000507,36.5216946 12.0000507,36.7437186 L12.0000507,39.2562814 C11.9983362,39.3634175 12.0401397,39.4666695 12.1159057,39.5424359 C12.1916717,39.6182022 12.2949232,39.660006 12.4020587,39.6582915 L15.3417423,39.6582915 L15.3417423,42.5979899 C15.3417423,42.820014 15.5217274,43 15.7437503,43 L18.2563004,43 C18.4783233,43 18.6583084,42.820014 18.6583084,42.5979899 L18.6583084,39.6457286 L21.5917106,39.6457286 C21.6994139,39.6474117 21.8032874,39.6058014 21.8800425,39.5302267 C21.9567977,39.454652 22.0000131,39.3514356 22,39.2437186 L22,36.7311558 C21.9965683,36.5081195 21.8147722,36.3291193 21.5917106,36.3291457 L18.6457457,36.3291457 L18.6457457,33.4082915 C18.6457721,33.1852288 18.4667728,33.0034317 18.2437376,33 Z" id="Shape"></path><path d="M6.4035309,6.65408805 L9.3480454,6.65408805 L9.3480454,9.59748428 C9.35149011,9.82080113 9.53397489,10.0000264 9.75788146,10 L12.2799496,10 C12.5038561,10.0000264 12.6863409,9.82080113 12.6897856,9.59748428 L12.6897856,6.65408805 L15.5964691,6.65408805 C15.8193331,6.65408805 16,6.47387562 16,6.25157233 L16,3.73584906 C15.9931866,3.51847298 15.8144999,3.34580573 15.5964691,3.34591195 L12.6708701,3.34591195 L12.6708701,0.402515723 C12.6674254,0.179198865 12.4849406,-2.64326988e-05 12.261034,0 L9.73896595,0 C9.51505938,-2.64326988e-05 9.3325746,0.179198865 9.32912989,0.402515723 L9.32912989,3.34591195 L6.4035309,3.34591195 C6.29650785,3.34591195 6.19386819,3.38831973 6.11819146,3.46380608 C6.04251474,3.53929242 6,3.64167387 6,3.74842767 L6,6.26415094 C6.00681344,6.48152702 6.18550012,6.65419427 6.4035309,6.65408805 Z" id="Shape"></path><path d="M48.5791457,18.3417423 L45.6457286,18.3417423 L45.6457286,15.4020587 C45.6457286,15.1800359 45.4657426,15.0000507 45.2437186,15.0000507 L42.7311558,15.0000507 C42.6240197,14.9983362 42.5207677,15.0401397 42.4450013,15.1159057 C42.3692349,15.1916717 42.3274312,15.2949232 42.3291457,15.4020587 L42.3291457,18.3417423 L39.4020101,18.3417423 C39.179986,18.3417423 39,18.5217274 39,18.7437503 L39,21.2563004 C39,21.4783233 39.179986,21.6583084 39.4020101,21.6583084 L42.3417085,21.6583084 L42.3417085,24.5917106 C42.3400255,24.6994139 42.3816358,24.8032874 42.4572105,24.8800425 C42.5327852,24.9567977 42.6360016,25.0000131 42.7437186,25 L45.2562814,25 C45.4793177,24.9965683 45.6583179,24.8147722 45.6582915,24.5917106 L45.6582915,21.6457457 L48.5917085,21.6457457 C48.8147713,21.6457721 48.9965683,21.4667728 49,21.2437376 L49,18.7311876 C48.9967515,18.623418 48.9503487,18.5214701 48.8712135,18.4482409 C48.7920782,18.3750116 48.686844,18.3366394 48.5791457,18.3417423 Z" id="Shape"></path><path d="M18.4699137,8.73694786 L34.6156745,17.8761443 C34.7529393,17.9556422 34.9083677,17.9982976 35.0669152,17.9999817 C35.4902042,18.0026298 35.8615445,17.717781 35.9693425,17.3077453 C36.0771405,16.8977096 35.8940251,16.4665998 35.5243372,16.2600669 L19.3847577,7.12087044 C19.0965623,6.95717199 18.7430746,6.95991969 18.4574501,7.12807852 C18.1718255,7.29623734 17.9974572,7.60425996 18.000028,7.93611723 C18.0025989,8.2679745 18.1817183,8.57324942 18.4699137,8.73694786 Z" id="Shape"></path><path d="M40.427308,27.9504995 L33.3744952,34.2142815 C33.6722706,33.3330869 33.8338148,32.4113 33.8535066,31.4809948 C33.8976261,28.9501738 32.7883365,26.6344726 30.5445461,24.6794133 C28.3550516,22.710706 25.2764614,22.0839047 22.4958938,23.0407067 C19.3886224,24.0277269 16.6595179,26.6597808 16.0292397,29.2855076 C15.9330517,29.6196747 16.0266751,29.9798898 16.2732373,30.2242853 C16.5197995,30.4686808 16.8797902,30.5580937 17.21143,30.4573094 C17.5430699,30.3565251 17.7932156,30.0816937 17.8633492,29.7410554 C18.2793328,28.0390782 20.2458007,25.7486852 23.0757497,24.8502438 C25.2274689,24.0920036 27.6200463,24.5777045 29.3092009,26.1156543 C31.1117965,27.6910904 32.0067915,29.4879733 31.9689748,31.4556866 C31.9311581,33.790369 30.607574,36.3528253 28.1873058,38.8203758 L28.0171306,38.9722251 C27.960037,39.0228433 27.9092465,39.0802027 27.8658639,39.1430555 C27.3085526,39.703416 26.7237696,40.2355484 26.1136906,40.7374727 C21.0714651,44.8374028 18.1658827,47.5517083 16.9557486,48.7285401 C15.7519173,47.5517083 12.8400321,44.8374028 7.80410948,40.7374727 C4.0602571,37.7004875 1.97403633,34.4104202 1.92361408,31.4493596 C1.88579739,29.4816462 2.7807924,27.653128 4.58338799,26.1093272 C7.26837303,23.7683178 11.283245,24.1732491 13.073235,26.1093272 C13.4355563,26.4152152 13.9674,26.404919 14.3177033,26.0852351 C14.6680067,25.7655512 14.7287541,25.2350537 14.459847,24.8439167 C13.7016448,24.056354 12.7655046,23.4638588 11.7307425,23.1166314 L11.7622564,12.9490579 C11.7622564,12.4249077 11.3389787,12 10.8168392,12 C10.2971511,11.9999884 9.87488649,12.4210532 9.8714219,12.9427308 L9.83990799,22.6927188 C7.48771254,22.4206361 5.12984632,23.1529889 3.34173998,24.7110486 C1.06643576,26.6218185 -0.0428538381,28.9248656 0.0012656344,31.4809948 C0.0579906704,35.0051631 2.39632271,38.8140488 6.58136981,42.2369842 C9.94387645,44.8888736 13.1648607,47.7167678 16.2309287,50.7089076 C16.4199407,50.8977329 16.6764959,51.0025735 16.9431431,50.999952 C17.1998595,50.9990677 17.4453326,50.8941117 17.6238435,50.7089076 C20.6892701,47.708122 23.9102659,44.8717698 27.2734024,42.211676 C28.0512763,41.5826381 28.792053,40.908724 29.4919816,40.1933462 L41.6815616,29.3740863 C41.9348854,29.1480425 42.0488359,28.8035024 41.980489,28.4702508 C41.9121422,28.1369992 41.6718815,27.8656651 41.3502108,27.7584574 C41.0285402,27.6512496 40.674329,27.7244557 40.4210052,27.9504995 L40.427308,27.9504995 Z" id="Shape"></path></g></g></g></g></g></svg>