<svg id="Layer_1" data-name="Layer 1" xmlns="http://www.w3.org/2000/svg" xmlns:xlink="http://www.w3.org/1999/xlink" viewBox="0 0 189.87 187.06"><defs><style>.cls-1,.cls-3,.cls-4{fill:none;}.cls-2{clip-path:url(#clip-path);}.cls-3{stroke:#4d648b;}.cls-3,.cls-4{stroke-linecap:round;stroke-linejoin:round;stroke-width:5.93px;}.cls-4{stroke:#fff;}</style><clipPath id="clip-path"><rect class="cls-1" x="4.84" y="4" width="178.91" height="176.75"/></clipPath></defs><title>Search</title><g class="cls-2"><path class="cls-3" d="M78.65,99a57,57,0,1,1,13.56,12.58"/><path class="cls-3" d="M155.29,41.54c6.47,9.11,7.8,23.71,5.42,32.51A38.32,38.32,0,1,1,86.75,54c5.54-20.42,26.71-32.9,47-26.94a36.14,36.14,0,0,1,9.59,4.59"/><path class="cls-3" d="M78.09,99.92l-67.15,61.7s-7.56,7.16.82,16.16"/><line class="cls-3" x1="91.84" y1="112.02" x2="26.83" y2="175.27"/><path class="cls-4" d="M126.29,58.8a1.62,1.62,0,0,1-.72-0.45,2.57,2.57,0,0,1-.09-3.09c1.7-2.86,8-6.2,12.87-2,6,5.17,3,12.08-3.51,17.35a129.25,129.25,0,0,0-10.55,9.25h0a129.25,129.25,0,0,0-10.55-9.25c-6.51-5.27-9.5-12.14-3.51-17.35a8.61,8.61,0,0,1,11.82.87"/></g><path class="cls-4" d="M170.35,158.09a1.62,1.62,0,0,1-.72-0.45,2.57,2.57,0,0,1-.09-3.09c1.7-2.86,8-6.2,12.87-2,6,5.17,3,12.08-3.51,17.35a129.25,129.25,0,0,0-10.55,9.25h0a129.25,129.25,0,0,0-10.55-9.25c-6.51-5.27-9.5-12.14-3.51-17.35a8.61,8.61,0,0,1,11.82.87"/></svg>