<?xml version="1.0" encoding="utf-8"?>
<!-- Generator: Adobe Illustrator 24.3.0, SVG Export Plug-In . SVG Version: 6.00 Build 0)  -->
<svg version="1.1" id="Layer_1" xmlns="http://www.w3.org/2000/svg" xmlns:xlink="http://www.w3.org/1999/xlink" x="0px" y="0px"
	 viewBox="0 0 90.2 82.9" style="enable-background:new 0 0 90.2 82.9;" xml:space="preserve">
<style type="text/css">
	.st0{fill:#00205D;}
</style>
<g id="Nurseline">
	<path class="st0" d="M2.1,52.1c-0.2,0-0.4,0-0.6-0.1c-0.8-0.3-1.1-1.2-0.8-2c0,0,0,0,0,0l8-18.6c0.3-0.8,1.2-1.1,2-0.8
		s1.1,1.2,0.8,2l-8,18.6C3.3,51.7,2.7,52.1,2.1,52.1z"/>
	<path class="st0" d="M44.4,72.1c-0.2,0-0.4,0-0.7-0.2L7.3,54.5c-0.7-0.4-1.1-1.2-0.7-2L15.1,34c0.3-0.8,1.2-1.1,2-0.7
		c0.8,0.3,1.1,1.2,0.7,2L9.9,52.4L44.5,69L86,52.2c-0.7-1.1-1.7-2.1-2.9-2.7c-1.8-0.9-4.1-0.8-6.7,0.2L65,54c-0.7,0.4-1.6,0-2-0.7
		c-0.4-0.7,0-1.6,0.7-2c0.1,0,0.2-0.1,0.3-0.1l11.4-4.3c3.4-1.3,6.5-1.3,9.1-0.1c2.3,1.2,4.1,3.2,5.1,5.7c0.3,0.8-0.1,1.6-0.9,1.9
		L45,72C44.8,72.1,44.6,72.1,44.4,72.1z"/>
	<path class="st0" d="M35.1,57.3c-0.8,0-1.5-0.6-1.6-1.4s0.6-1.5,1.4-1.6l0,0l21.3-1.7c0.5,0,0.9-0.3,1.3-0.6
		c0.3-0.4,0.5-0.9,0.4-1.4L57.9,50c-0.1-1-0.9-1.7-1.9-1.6l-12.2,0.5c-0.6,0-1.1-0.3-1.4-0.8c-1.7-3.4-4.8-5.8-8.4-6.7
		c-3.6-0.9-7.4-0.4-10.6,1.5c-3.8,2.7-2.5,6-2.3,6.3c0.2,0.8-0.2,1.6-1,1.9c-0.6,0.2-1.3-0.1-1.7-0.6c-0.9-2-1.4-6.7,3.3-10
		c3.9-2.4,8.6-3.1,13-2c4.2,1,7.7,3.6,9.9,7.3l11.3-0.4c2.6-0.1,4.8,1.8,5,4.3l0.1,0.6c0.2,2.7-1.7,5.1-4.4,5.3c0,0,0,0,0,0
		l-21.3,1.7L35.1,57.3z"/>
	<path class="st0" d="M64.1,42.5c-8.7,0-15.8-7.1-15.8-15.8c0-8.7,7.1-15.8,15.8-15.8c8.7,0,15.8,7.1,15.8,15.8
		C79.9,35.4,72.8,42.4,64.1,42.5z M64.1,13.8c-7.1,0-12.8,5.8-12.8,12.8S57,39.5,64.1,39.4c7.1,0,12.8-5.7,12.8-12.8
		C76.9,19.5,71.2,13.8,64.1,13.8z"/>
	<path class="st0" d="M64.2,35.2c-1.8-0.1-3.5-0.9-4.8-2.3c-0.6-0.6-0.6-1.5-0.1-2.1s1.5-0.6,2.1-0.1c0,0,0.1,0,0.1,0.1
		c1.1,1.1,2.2,1.6,3.1,1.3c0.5-0.1,0.8-0.4,1-0.9c0.2-0.8,0.5-1.5-2.6-3c-2.2-1.1-3.6-2.9-3.5-4.9c0.1-1.8,1.2-3.4,2.9-4.1
		c3.1-1.5,5.6,1,6.5,2.5c0.4,0.7,0.1,1.6-0.6,2c-0.7,0.4-1.5,0.2-1.9-0.5c-0.1-0.2-1.3-2-2.7-1.3c-0.6,0.2-1.1,0.8-1.1,1.4
		c0,0.8,0.7,1.6,1.9,2.2c2.8,1.4,5.2,3.1,4.2,6.6c-0.5,1.4-1.7,2.5-3.2,2.9C64.9,35.2,64.6,35.2,64.2,35.2z"/>
	<path class="st0" d="M64.1,37.6c-0.8,0-1.5-0.7-1.5-1.5v-2.3c0-0.8,0.7-1.5,1.5-1.5c0.8,0,1.5,0.7,1.5,1.5v2.3
		C65.6,36.9,65,37.6,64.1,37.6z"/>
	<path class="st0" d="M64.1,21.8c-0.8,0-1.5-0.7-1.5-1.5v-2.5c0-0.8,0.7-1.5,1.5-1.5c0.8,0,1.5,0.7,1.5,1.5v2.5
		C65.6,21.1,65,21.8,64.1,21.8z"/>
</g>
</svg>
