<svg id="Layer_1" data-name="Layer 1" xmlns="http://www.w3.org/2000/svg" viewBox="0 0 60.24 66.3"><defs><style>.cls-1{fill:#ffffff;}</style></defs><title>BH_Icon_Events</title><path class="cls-1" d="M54.62,66.65H6.38a6,6,0,0,1-6-6V12.41a6,6,0,0,1,6-6H54.62a6,6,0,0,1,6,6V27.58a1,1,0,0,1-1,1H9.38a1,1,0,1,1,0-2H58.62V12.41a4,4,0,0,0-4-4H6.38a4,4,0,0,0-4,4V60.65a4,4,0,0,0,4,4H54.62a4,4,0,0,0,4-4V36.53a1,1,0,0,1,2,0V60.65A6,6,0,0,1,54.62,66.65Z" transform="translate(-0.38 -0.35)"/><path class="cls-1" d="M17.49,16.35a1,1,0,0,1-1-1v-14a1,1,0,0,1,2,0v14A1,1,0,0,1,17.49,16.35Z" transform="translate(-0.38 -0.35)"/><path class="cls-1" d="M43.51,16.35a1,1,0,0,1-1-1v-14a1,1,0,0,1,2,0v14A1,1,0,0,1,43.51,16.35Z" transform="translate(-0.38 -0.35)"/><path class="cls-1" d="M16.67,41.53H9.33a1,1,0,0,1,0-2h7.33a1,1,0,0,1,0,2Z" transform="translate(-0.38 -0.35)"/><path class="cls-1" d="M16.67,52.75H9.33a1,1,0,0,1,0-2h7.33a1,1,0,0,1,0,2Z" transform="translate(-0.38 -0.35)"/><path class="cls-1" d="M34.17,41.53H26.83a1,1,0,0,1,0-2h7.33a1,1,0,1,1,0,2Z" transform="translate(-0.38 -0.35)"/><path class="cls-1" d="M34.17,52.75H26.83a1,1,0,0,1,0-2h7.33a1,1,0,1,1,0,2Z" transform="translate(-0.38 -0.35)"/><path class="cls-1" d="M51.67,41.53H44.33a1,1,0,0,1,0-2h7.33a1,1,0,1,1,0,2Z" transform="translate(-0.38 -0.35)"/><path class="cls-1" d="M51.67,52.75H44.33a1,1,0,0,1,0-2h7.33a1,1,0,1,1,0,2Z" transform="translate(-0.38 -0.35)"/></svg>