<svg xmlns="http://www.w3.org/2000/svg" viewBox="0 0 90 82.8"><defs><style>.cls-1{opacity:0.37;}.cls-2{fill:#231f20;}</style></defs><title>BH-icons-svg</title><g id="Nurseline"><path class="cls-2" d="M69.76,32.89A6.73,6.73,0,0,0,63,39.6a7.12,7.12,0,0,0,.12,1.23c-7.73,5.5-5.26,15.4-4.18,19.69,1.24,4.95.65,9.77-1.57,12.9a10.14,10.14,0,0,1-7.75,4.11c-3.64.32-6.46-.4-8.35-2.15s-3.06-4.93-3-8.7V53.87a1.5,1.5,0,0,0-1.5-1.5,7.41,7.41,0,0,1-6.49-3.89A275.38,275.38,0,0,1,17.72,22.12c-1.5-3.78-1.58-7.35-.24-10.06a7.18,7.18,0,0,1,3.29-3.29,4.6,4.6,0,1,0-.3-3.12,10.07,10.07,0,0,0-5.67,5.07c-1.73,3.48-1.69,7.92.13,12.51A278.82,278.82,0,0,0,27.67,49.92a10.42,10.42,0,0,0,7.62,5.34V66.65c0,4.63,1.36,8.51,4,10.93a12.42,12.42,0,0,0,8.74,3q.93,0,1.92-.09a13.13,13.13,0,0,0,9.92-5.35c2.76-3.89,3.51-9.49,2-15.36s-2.26-12.3,2.52-16.16a6.71,6.71,0,1,0,5.35-10.75ZM24.91,5.2a1.6,1.6,0,1,1-1.6,1.6A1.6,1.6,0,0,1,24.91,5.2ZM69.76,43.32a3.72,3.72,0,1,1,3.71-3.72A3.73,3.73,0,0,1,69.76,43.32Z"/><path class="cls-2" d="M41.09,50a4.93,4.93,0,0,0,1.83.37c1.49,0,3.17-.76,4.66-3.31a176.77,176.77,0,0,0,11-23.69c1.84-4.64,1.86-9.13.06-12.63a10,10,0,0,0-6-5.09,4.58,4.58,0,1,0-.25,3.09A7,7,0,0,1,56,12.08c1.4,2.72,1.34,6.33-.18,10.16A173.9,173.9,0,0,1,45,45.51c-1.21,2.08-2.09,2-2.81,1.67A1.5,1.5,0,1,0,41.09,50ZM48.18,8.4a1.6,1.6,0,1,1,1.6-1.6A1.6,1.6,0,0,1,48.18,8.4Z"/></g></svg>