<?xml version="1.0" encoding="utf-8"?>
<!-- Generator: Adobe Illustrator 25.2.3, SVG Export Plug-In . SVG Version: 6.00 Build 0)  -->
<svg version="1.1" id="Layer_1" xmlns="http://www.w3.org/2000/svg" xmlns:xlink="http://www.w3.org/1999/xlink" x="0px" y="0px"
	 viewBox="0 0 90 82.8" style="enable-background:new 0 0 90 82.8;" xml:space="preserve">
<style type="text/css">
	.st0{fill:none;stroke:#00205D;stroke-width:3.2861;stroke-linecap:round;stroke-linejoin:round;stroke-miterlimit:10;}
	.st1{fill:none;stroke:#8DC8E8;stroke-width:3.2861;stroke-linecap:round;stroke-linejoin:round;stroke-miterlimit:10;}
	.st2{fill:#8DC8E8;}
</style>
<g>
	<g>
		<polyline class="st0" points="16.2,36 16.2,69.8 30,69.8 		"/>
		<polyline class="st0" points="60,69.8 73.8,69.8 73.8,36 		"/>
	</g>
	<polygon class="st1" points="51.9,59.6 51.9,69.8 38.1,69.8 38.1,59.6 27.9,59.6 27.9,45.8 38.1,45.8 38.1,45.8 38.1,35.6 
		51.9,35.6 51.9,45.8 62.1,45.8 62.1,59.6 	"/>
	<rect x="35.2" y="45" class="st2" width="4.5" height="2.4"/>
	<rect x="35.2" y="58" class="st2" width="4.5" height="2.4"/>
	<rect x="50.3" y="45" class="st2" width="4.5" height="2.4"/>
	<rect x="50.3" y="58" class="st2" width="4.5" height="2.4"/>
	<polyline class="st0" points="84.9,34.8 45,13 5.1,34.8 	"/>
</g>
</svg>
