<?xml version="1.0" encoding="utf-8"?>
<!-- Generator: Adobe Illustrator 25.2.3, SVG Export Plug-In . SVG Version: 6.00 Build 0)  -->
<svg version="1.1" id="Layer_1" xmlns="http://www.w3.org/2000/svg" xmlns:xlink="http://www.w3.org/1999/xlink" x="0px" y="0px"
	 viewBox="0 0 90 82.8" style="enable-background:new 0 0 90 82.8;" xml:space="preserve">
<style type="text/css">
	.st0{fill:none;stroke:#00205D;stroke-width:3.2861;stroke-linecap:round;stroke-linejoin:round;stroke-miterlimit:10;}
	.st1{fill:none;stroke:#8DC8E8;stroke-width:3.2861;stroke-linecap:round;stroke-linejoin:round;stroke-miterlimit:10;}
</style>
<g>
	<path class="st0" d="M65.4,17.3v54c0,2.1-1.7,3.9-3.9,3.9h-33c-2.1,0-3.9-1.7-3.9-3.9V11.5c0-2.1,1.7-3.9,3.9-3.9h33
		c2.1,0,3.9,1.7,3.9,3.9V17.3"/>
	<line class="st0" x1="24.6" y1="65.5" x2="65.4" y2="65.5"/>
	<line class="st0" x1="24.6" y1="17.3" x2="65.4" y2="17.3"/>
	<circle class="st1" cx="45" cy="35.6" r="5.2"/>
	<path class="st1" d="M36,54.9L36,54.9c0-4.7,3.9-8.6,8.6-8.6h0.9c4.7,0,8.6,3.9,8.6,8.6l0,0"/>
</g>
</svg>
