<?xml version="1.0" encoding="utf-8"?>
<!-- Generator: Adobe Illustrator 25.2.3, SVG Export Plug-In . SVG Version: 6.00 Build 0)  -->
<svg version="1.1" id="Layer_1" xmlns="http://www.w3.org/2000/svg" xmlns:xlink="http://www.w3.org/1999/xlink" x="0px" y="0px"
	 viewBox="0 0 90 82.8" style="enable-background:new 0 0 90 82.8;" xml:space="preserve">
<style type="text/css">
	.st0{fill:none;stroke:#001F5B;stroke-width:2.8846;stroke-linecap:round;stroke-miterlimit:10;}
	.st1{fill:none;stroke:#001F5B;stroke-width:4.3269;stroke-linecap:round;stroke-miterlimit:10;}
	.st2{fill:#00205D;stroke:#00205D;stroke-width:1.3846;stroke-miterlimit:10;}
	.st3{fill:#8DC8E8;stroke:#8DC8E8;stroke-width:1.3846;stroke-miterlimit:10;}
</style>
<path class="st0" d="M45,41.4"/>
<path class="st1" d="M45,41.4"/>
<path class="st1" d="M45,41.4"/>
<g>
	<path class="st2" d="M43.5,18.6C42.5,19.4,30.9,31,29,33c-1.4,1.4-1.2,3.4,0.4,5c0.6,0.6,1.4,1.1,2.3,1.5l-7.2,7.2
		c-0.7,0.7-1.2,1.8-1.4,2.7c-0.1,0.4-0.1,1-0.1,1.4c0.1,0.9,0.4,1.9,0.8,2.3c0.2,0.3,0.5,0.6,0.5,0.6l0.1,0.1c1,1,2.3,1.5,3.6,1.5
		c0.2,0,0.4,0,0.6-0.1c-0.1,1.5,0.3,3.1,1.5,4.2c0.9,0.9,2.3,1.5,3.6,1.5c0.2,0,0.4,0,0.6-0.1c0,0.2-0.1,0.4-0.1,0.6
		c0,1.4,0.5,2.6,1.5,3.6c1,1,2.3,1.5,3.6,1.5c0.2,0,0.4,0,0.6-0.1c0,0.2-0.1,0.4-0.1,0.6c0,1.4,0.5,2.6,1.5,3.6s2.3,1.5,3.6,1.5
		s2.6-0.5,3.6-1.5L72.2,47c3.9-3.9,5.9-9,5.9-14.4c0.1-5.2-2-10.3-5.8-14.1c-3.9-3.8-9-5.9-14.4-5.9c-4.7,0-9.2,1.6-12.8,4.5
		L43.5,18.6z M26,52.4c-1.1-1.2-1.1-3,0.1-4.2l8-8.2c1.9,0.1,3.9-0.5,5.7-2.3l5.5-5.5c2.2,2,4.4,3.1,6.6,3.4
		c2.7,0.4,5.2-0.6,7.3-2.6c0.4-0.4,0.4-1.1,0-1.5s-1.1-0.4-1.5,0c-1.6,1.6-3.4,2.3-5.5,2c-2-0.3-4.2-1.5-6.2-3.6
		c-0.4-0.4-1.2-0.4-1.5,0l-6.3,6.3c-1.4,1.4-2.9,1.7-4.4,1.6c-0.1,0-0.1,0-0.3,0c-1.2-0.1-2.2-0.7-2.8-1.4c-0.4-0.5-0.9-1.2-0.3-1.8
		c2-2,14.5-14.5,14.5-14.5c3.4-3.4,8-5.3,12.8-5.3c4.9,0,9.4,1.9,12.8,5.3s5.3,8,5.3,12.8c0.1,4.8-1.8,9.4-5.2,12.8L47.1,69.4
		c-1.2,1.2-3,1.2-4.2,0c-0.5-0.6-0.8-1.3-0.8-2.1c0-0.8,0.3-1.5,0.9-2L53.2,55c0.4-0.4,0.4-1.1,0-1.5s-1.1-0.4-1.5,0L41.5,63.7
		c-1.2,1.2-3,1.2-4.2,0c-0.6-0.6-0.9-1.3-0.9-2c0-0.8,0.3-1.5,0.9-2l10.2-10.2c0.4-0.4,0.4-1.1,0-1.5s-1.1-0.4-1.5,0L35.8,58.1
		c-0.6,0.6-1.3,0.9-2,0.9c-0.8,0-1.5-0.3-2-0.9c-1.2-1.2-1.2-3,0-4.2L42,43.7c0.4-0.4,0.4-1.1,0-1.5s-1.1-0.4-1.5,0L30.2,52.4
		C29,53.5,27.2,53.5,26,52.4"/>
	<path class="st3" d="M19.3,45.8c0-0.2-0.1-0.3-0.2-0.4c-0.3-0.4-0.7-0.8-1-1.2c-2.5-3.2-3.9-7.2-3.9-11.3c0-4.9,1.9-9.4,5.3-12.8
		s8-5.3,12.8-5.3c1.2,0,2.4,0.1,3.6,0.4c0.6,0.1,1.2,0.3,1.7,0.5s1,0.5,1.5,0.6c0.4,0.1,0.8,0,1-0.3c0.1-0.1,0.2-0.3,0.2-0.5
		c0.1-0.3,0-0.6-0.2-0.9c-0.2-0.2-0.4-0.3-0.6-0.4c-2.4-0.9-4.8-1.4-7.4-1.4c-5.4,0-10.5,2.1-14.4,5.9c-3.9,3.9-6,9-6,14.4
		c0,0.9,0.1,1.9,0.2,2.8c0.3,2.1,0.9,4.1,1.8,6c0.5,0.9,1,1.8,1.6,2.7c0.6,0.8,1.1,1.7,1.9,2.3c0.1,0.1,0.2,0.2,0.4,0.2
		c0.2,0.1,0.3,0,0.5,0c0.3,0,0.5-0.1,0.7-0.2c0.2-0.1,0.4-0.4,0.4-0.6C19.3,45.9,19.3,45.9,19.3,45.8z"/>
</g>
</svg>
