<?xml version="1.0" encoding="utf-8"?>
<!-- Generator: Adobe Illustrator 25.2.3, SVG Export Plug-In . SVG Version: 6.00 Build 0)  -->
<svg version="1.1" id="Layer_1" xmlns="http://www.w3.org/2000/svg" xmlns:xlink="http://www.w3.org/1999/xlink" x="0px" y="0px"
	 viewBox="0 0 90 82.8" style="enable-background:new 0 0 90 82.8;" xml:space="preserve">
<style type="text/css">
	.st0{fill:none;stroke:#001F5B;stroke-width:2.8846;stroke-linecap:round;stroke-miterlimit:10;}
	.st1{fill:none;stroke:#001F5B;stroke-width:4.3269;stroke-linecap:round;stroke-miterlimit:10;}
	.st2{fill:none;stroke:#00205D;stroke-width:3.2861;stroke-linecap:round;stroke-linejoin:round;stroke-miterlimit:10;}
	.st3{fill:none;stroke:#8DC8E8;stroke-width:3.2861;stroke-linecap:round;stroke-linejoin:round;stroke-miterlimit:10;}
</style>
<path class="st0" d="M45,41.4"/>
<path class="st1" d="M45,41.4"/>
<path class="st1" d="M45,41.4"/>
<g>
	<path class="st2" d="M76.5,41.4c1.2,0,2.3-1,2.3-2.3v-9c0-1.2-1-2.3-2.3-2.3h-18v-18c0-1.2-1-2.3-2.3-2.3H33.7
		c-1.2,0-2.3,1-2.3,2.3v18h-18c-1.2,0-2.3,1-2.3,2.3"/>
	<path class="st3" d="M62.8,41.4h7.9"/>
	<polyline class="st3" points="24.7,41.4 34.8,41.4 37.1,38.3 42.5,47 49.5,31.3 54.7,41.4 62.8,41.4 	"/>
	<path class="st3" d="M19.2,41.4h5.5"/>
	<path class="st2" d="M78.8,52.7c0,1.2-1,2.3-2.3,2.3h-18v18c0,1.2-1,2.3-2.3,2.3H33.7c-1.2,0-2.3-1-2.3-2.3V55h-18
		c-1.2,0-2.3-1-2.3-2.3v-9c0-1.2,1-2.3,2.3-2.3"/>
</g>
</svg>
