<svg width="229px" height="184px" viewBox="0 0 229 184" version="1.1" xmlns="http://www.w3.org/2000/svg" xmlns:xlink="http://www.w3.org/1999/xlink">
  <title>Group 2 Copy</title>
  <desc>Created with Sketch.</desc>
  <defs></defs>
  <g id="Artboards" stroke="none" stroke-width="1" fill="none" fill-rule="evenodd">
    <g id="Services-Landing" transform="translate(-1211.000000, -1190.000000)">
      <g id="Group-13" transform="translate(0.000000, 947.000000)">
        <g id="Group-5">
          <g id="Group-2-Copy" transform="translate(1211.000000, 243.000000)">
            <g id="BH_Location_Plus" transform="translate(46.000000, 20.000000)" fill="#E4F1FD" fill-rule="nonzero">
              <g id="Nurseline">
                <path d="M34.838823,94.8593565 C34.1291173,94.8593565 33.4194115,94.437426 32.9935881,93.874852 L4.17953448,46.618634 C1.62459376,42.2586854 0.205182257,37.3361627 0.205182257,32.2729964 C0.347123408,14.8332017 14.6831796,0.90949467 32.2838823,0.628207659 C49.7426438,0.628207659 63.9367589,14.6925582 63.9367589,31.9917094 C63.9367589,37.3361627 62.2334651,41.6961113 60.1043478,46.899921 L42.6455863,82.764015 C42.0778217,83.7485195 40.8003513,84.1704501 39.8067633,83.7485195 C38.8131752,83.1859455 38.3873518,81.920154 38.8131752,80.9356494 L56.2719368,45.212199 C58.2591129,40.4303198 59.6785244,36.6329451 59.6785244,31.9917094 C59.6785244,16.9428543 47.3296443,4.84751283 32.2838823,4.84751283 C16.954238,4.98815634 4.60535793,17.2241413 4.32147563,32.2729964 C4.46341678,36.6329451 5.59894598,40.7116068 7.87000439,44.5089814 L36.684058,91.6245559 C37.2518226,92.6090604 36.9679403,93.874852 35.9743522,94.5780695 C35.5485288,94.718713 35.2646465,94.8593565 34.838823,94.8593565 Z" id="Shape"></path>
              </g>
              <g id="Group" transform="translate(21.979798, 24.228188)">
                <path d="M12.4536797,19.7013423 L7.72987013,19.7013423 C7.15728716,19.7013423 6.87099567,19.2805369 6.87099567,18.8597315 L6.87099567,1.04563758 C6.87099567,0.484563758 7.3004329,0.204026846 7.72987013,0.204026846 L12.4536797,0.204026846 C13.0262626,0.204026846 13.3125541,0.624832215 13.3125541,1.04563758 L13.3125541,18.8597315 C13.3125541,19.4208054 12.8831169,19.7013423 12.4536797,19.7013423 Z" id="Shape"></path>
                <path d="M0,12.2671141 L0,7.63825503 C0,7.07718121 0.429437229,6.7966443 0.858874459,6.7966443 L19.0383838,6.7966443 C19.6109668,6.7966443 19.8972583,7.21744966 19.8972583,7.63825503 L19.8972583,12.2671141 C19.8972583,12.8281879 19.4678211,13.1087248 19.0383838,13.1087248 L0.858874459,13.1087248 C0.429437229,13.2489933 0,12.8281879 0,12.2671141 Z" id="Shape"></path>
              </g>
            </g>
            <g id="BH_Icon_Location" transform="translate(0.000000, 72.000000)" fill="#E4F1FD" fill-rule="nonzero">
              <path d="M21.7785683,57.9999972 C21.3107497,58.0009454 20.876144,57.7646039 20.6313917,57.3761549 L2.52556692,28.315505 C0.92717133,25.6357671 0.0578351909,22.6026298 0,19.5037337 C0.177736237,8.76089331 9.10656685,0.111306122 20.1333926,0 C31.1013526,0.00955414553 39.990194,8.67013228 40,19.3564377 C40,22.6316093 38.9684304,25.34359 37.6167185,28.5407814 L26.6429524,50.6178643 C26.4284978,51.0357593 26.0015131,51.3104381 25.5228394,51.3384317 C25.0441656,51.3664254 24.5865248,51.143481 24.3223058,50.7535797 C24.0580867,50.3636783 24.0274306,49.8660552 24.2418853,49.4481601 L35.1889729,27.440393 C36.4339707,24.485807 37.3321476,22.1290697 37.3321476,19.3217798 C37.3027703,10.0845886 29.6140851,2.60884082 20.1333926,2.59934257 C10.5719685,2.69197622 2.82642334,10.1886653 2.66785238,19.5037337 C2.74080396,22.1528417 3.50269911,24.7405619 4.88216985,27.0244982 L22.9168519,56.0244968 C23.0997855,56.3197489 23.1547743,56.6737365 23.0697092,57.008509 C22.9846442,57.3432815 22.7665012,57.6313856 22.463317,57.8093787 C22.2577633,57.9338585 22.0205912,57.9998818 21.7785683,57.9999972 Z" id="Shape"></path>
              <path d="M13.1147541,20.7142859 C13.1147541,17.0182264 16.2074011,14.0219783 20.0223745,14.0219783 C20.4885242,14.0218518 20.9535915,14.0654554 21.411066,14.1521788 C21.8815909,14.2452112 22.2651449,14.5743742 22.4172468,15.0156754 C22.5693488,15.4569766 22.4668908,15.9433718 22.1484678,16.2916407 C21.8300448,16.6399095 21.3440329,16.7971417 20.873508,16.7041093 C20.5783266,16.6490112 20.2781703,16.6228392 19.977578,16.625989 C18.1561706,16.6333738 16.5470701,17.7768198 15.992644,19.4577308 C15.4382179,21.1386418 16.0647265,22.9742211 17.5441912,24.0035391 C19.023656,25.0328571 21.019156,25.0215055 22.4860428,23.9754269 C23.9529296,22.9293484 24.5571467,21.086768 23.9823851,19.4122805 C23.7961028,18.9635272 23.8819415,18.4517117 24.205293,18.0831858 C24.5286445,17.7146599 25.0362108,17.5501676 25.5233534,17.6560283 C26.010496,17.7618891 26.3969191,18.1206537 26.5268263,18.5876771 C26.7668986,19.2724564 26.8880012,19.9910895 26.8851983,20.7142859 C26.8803965,24.3915108 23.8177959,27.3780169 20.0223745,27.4065934 C16.2074011,27.4065934 13.1147541,24.4103453 13.1147541,20.7142859 Z" id="Shape"></path>
            </g>
          </g>
        </g>
      </g>
    </g>
  </g>
</svg>
