<svg version="1.1" xmlns="http://www.w3.org/2000/svg" width="42px" height="43px" viewBox="0 0 42 43"><style type="text/css">.st0{fill:#FFFFFF;}</style><g><circle class="st0" cx="20.9" cy="21.6" r="4.4"/><path class="st0" d="M31.3,13.7c-0.2-0.6-0.5-1.1-1-1.5c-0.5-0.5-0.9-0.8-1.5-1c-0.5-0.2-1.2-0.4-2.5-0.5c-1.4-0.1-1.8-0.1-5.4-0.1s-4,0-5.4,0.1c-1.3,0.1-2,0.3-2.5,0.5c-0.6,0.2-1.1,0.5-1.5,1s-0.8,0.9-1,1.5c-0.2,0.5-0.4,1.2-0.5,2.5C10,17.6,10,18,10,21.6c0,3.6,0,4,0.1,5.4c0.1,1.3,0.3,2,0.5,2.5c0.2,0.6,0.5,1.1,1,1.5c0.5,0.5,0.9,0.8,1.5,1c0.5,0.2,1.2,0.4,2.5,0.5c1.4,0.1,1.8,0.1,5.4,0.1s4,0,5.4-0.1c1.3-0.1,2-0.3,2.5-0.5c0.6-0.2,1.1-0.5,1.5-1s0.8-0.9,1-1.5c0.2-0.5,0.4-1.2,0.5-2.5c0.1-1.4,0.1-1.8,0.1-5.4c0-3.6,0-4-0.1-5.4C31.7,14.9,31.5,14.2,31.3,13.7z M20.9,28.4c-3.8,0-6.8-3.1-6.8-6.8c0-3.8,3.1-6.8,6.8-6.8s6.8,3.1,6.8,6.8C27.8,25.4,24.7,28.4,20.9,28.4z M28.1,16.1c-0.9,0-1.6-0.7-1.6-1.6s0.7-1.6,1.6-1.6c0.9,0,1.6,0.7,1.6,1.6S28.9,16.1,28.1,16.1z"/><path class="st0" d="M20.9,1.1C9.6,1.1,0.5,10.3,0.5,21.6c0,11.3,9.2,20.5,20.5,20.5s20.5-9.2,20.5-20.5C41.4,10.3,32.3,1.1,20.9,1.1z M34.2,27.1c-0.1,1.4-0.3,2.4-0.6,3.2c-0.3,0.9-0.8,1.6-1.5,2.4c-0.7,0.7-1.5,1.2-2.4,1.5c-0.8,0.3-1.8,0.6-3.2,0.6c-1.4,0.1-1.9,0.1-5.5,0.1s-4.1,0-5.5-0.1c-1.4-0.1-2.4-0.3-3.2-0.6c-0.9-0.3-1.6-0.8-2.4-1.5c-0.7-0.7-1.2-1.5-1.5-2.4c-0.3-0.8-0.6-1.8-0.6-3.2c-0.1-1.4-0.1-1.9-0.1-5.5c0-3.6,0-4.1,0.1-5.5c0.1-1.4,0.3-2.4,0.6-3.2c0.3-0.9,0.8-1.6,1.5-2.4c0.7-0.7,1.5-1.2,2.4-1.5c0.8-0.3,1.8-0.6,3.2-0.6c1.4-0.1,1.9-0.1,5.5-0.1s4.1,0,5.5,0.1c1.4,0.1,2.4,0.3,3.2,0.6c0.9,0.3,1.6,0.8,2.4,1.5c0.7,0.7,1.2,1.5,1.5,2.4c0.3,0.8,0.6,1.8,0.6,3.2c0.1,1.4,0.1,1.9,0.1,5.5C34.3,25.2,34.2,25.7,34.2,27.1z"/></g></svg>
