<svg width="42px" height="43px" viewBox="0 0 198 198" fill="none" xmlns="http://www.w3.org/2000/svg"><path fill-rule="evenodd" clip-rule="evenodd" d="M112.501 196.62C160.531 189.926 197.503 148.679 197.503 98.7874H197.517C197.517 44.23 153.3 0 98.7583 0C44.217 0 0 44.23 0 98.7874C0 147.953 35.9133 188.736 82.9329 196.308C88.0811 197.139 93.3678 197.568 98.7513 197.568C103.415 197.568 108.01 197.243 112.501 196.62ZM85.8293 104.911L40.2837 44H40.2906H75.3944L105.253 83.9316L142.204 44H152.522L109.862 90.0989L157.967 154.437H122.864L90.4448 111.079L50.3173 154.437H40L85.8293 104.911ZM71.5747 51.6001H55.4517L126.663 146.837H142.786L71.5747 51.6001Z" fill="white"/></svg>
