<svg width="42px" height="43px" viewBox="0 0 42 43" version="1.1" xmlns="http://www.w3.org/2000/svg"><g fill="#FFFFFF" fill-rule="evenodd"><path d="M0,21.1271676 C0,9.45895456 9.23897888,0 20.6358382,0 C32.0326974,0 41.2716763,9.45895456 41.2716763,21.1271676 C41.2716763,32.7953807 32.0326974,42.2543353 20.6358382,42.2543353 C9.23897888,42.2543353 0,32.7953807 0,21.1271676 Z M22.0988805,32.8452426 L22.0988805,21.350948 L25.1980195,21.350948 L25.6087223,17.3899504 L22.0988805,17.3899504 L22.1041459,15.407433 C22.1041459,14.3743438 22.2000204,13.8207911 23.6493275,13.8207911 L25.586783,13.8207911 L25.586783,9.85934489 L22.4872053,9.85934489 C18.7641139,9.85934489 17.4536822,11.7808549 17.4536822,15.0122304 L17.4536822,17.390399 L15.132948,17.390399 L15.132948,21.3513966 L17.4536822,21.3513966 L17.4536822,32.8452426 L22.0988805,32.8452426 Z"/></g></svg>
