<svg width="42px" height="43px" viewBox="0 0 42 43" version="1.1" xmlns="http://www.w3.org/2000/svg"><g fill="#FFFFFF" fill-rule="evenodd"><path d="M0,21.1271676 C0,9.45895456 9.36831871,0 20.9247268,0 C32.4811348,0 41.8494535,9.45895456 41.8494535,21.1271676 C41.8494535,32.7953807 32.4811348,42.2543353 20.9247268,42.2543353 C9.36831871,42.2543353 0,32.7953807 0,21.1271676 Z M31.8154079,16.874512 C31.8154079,16.874512 31.5974083,15.2876512 30.9294798,14.5888567 C30.0818582,13.6712841 29.1318535,13.6669661 28.6965507,13.6137109 C25.5776935,13.3805395 20.8994078,13.3805395 20.8994078,13.3805395 L20.889657,13.3805395 C20.889657,13.3805395 16.2113712,13.3805395 13.092514,13.6137109 C12.6565147,13.6669661 11.7072065,13.6712841 10.8588885,14.5888567 C10.1909599,15.2876512 9.97365678,16.874512 9.97365678,16.874512 C9.97365678,16.874512 9.75078177,18.7384438 9.75078177,20.6016559 L9.75078177,22.349002 C9.75078177,24.2129338 9.97365678,26.0761459 9.97365678,26.0761459 C9.97365678,26.0761459 10.1909599,27.6630067 10.8588885,28.3618012 C11.7072065,29.2793738 12.8208851,29.2505872 13.316782,29.3463026 C15.0997821,29.5233402 20.8945324,29.5780347 20.8945324,29.5780347 C20.8945324,29.5780347 25.5776935,29.570838 28.6965507,29.3376666 C29.1318535,29.2836918 30.0818582,29.2793738 30.9294798,28.3618012 C31.5974083,27.6630067 31.8154079,26.0761459 31.8154079,26.0761459 C31.8154079,26.0761459 32.038283,24.2129338 32.038283,22.349002 L32.038283,20.6016559 C32.038283,18.7384438 31.8154079,16.874512 31.8154079,16.874512 Z"/><polygon points="18.5933479 24.4662558 18.5926514 17.9957497 24.6144556 21.2421575"/></g></svg>
